<svg xmlns="http://www.w3.org/2000/svg" viewBox="0 0 1259.9 154.7">

<g transform="translate(24.0 24.0)">
<g transform="translate(0 0.00) scale(1.40377)"><g fill="none" stroke="#FFFFFF" stroke-width="6.4" stroke-linecap="round" stroke-linejoin="round">
<path d="M50 6 H9.2 V70 H50"/>
<path d="M50 6 V70"/>
<circle cx="50.0" cy="38.0" r="13.0"/>
</g>
<g fill="none" stroke="#3987E5" stroke-width="6.4" stroke-linecap="round">
<path d="M68.5 38.0 L90.5 38.0" opacity="1.0"/>
<path d="M67.3 31.4 L87.8 23.5" opacity="0.66"/>
<path d="M67.3 44.6 L87.8 52.5" opacity="0.66"/>
<path d="M63.7 25.6 L80.1 10.9" opacity="0.36"/>
<path d="M63.7 50.4 L80.1 65.1" opacity="0.36"/>
</g></g>
<g fill="#FFFFFF" transform="translate(178.78 86.27)"><path transform="translate(0.00 0) scale(0.096000 -0.096000)" d="M487.7825927734375 -12Q346.6085205078125 -12 251.7388916015625 28.5Q156.8692626953125 69 109.54315185546875 148.39129638671875Q62.217041015625 227.7825927734375 62.217041015625 344Q62.217041015625 514.2174072265625 171.3040771484375 606.7174072265625Q280.39111328125 699.2174072265625 487.434814453125 699.2174072265625Q604.304443359375 699.2174072265625 693.3479614257812 665.2390747070312Q782.3914794921875 631.2607421875 832.3262939453125 568.2824096679688Q882.2611083984375 505.3040771484375 882.2611083984375 417.521484375H713.47705078125Q713.47705078125 464.477783203125 684.651123046875 496.78204345703125Q655.8251953125 529.0863037109375 604.5211181640625 545.868896484375Q553.217041015625 562.6514892578125 484.2174072265625 562.6514892578125Q407.6959228515625 562.6514892578125 352.891845703125 537.6950073242188Q298.0877685546875 512.738525390625 268.80535888671875 466.6951904296875Q239.52294921875 420.65185546875 239.52294921875 357V332Q239.52294921875 268.0003662109375 268.80535888671875 221.45703125Q298.0877685546875 174.9136962890625 352.95703125 149.73980712890625Q407.8262939453125 124.56591796875 483.9129638671875 124.56591796875Q556.5648193359375 124.56591796875 608.8037109375 140.73980712890625Q661.0426025390625 156.9136962890625 689.5859375 189.00054931640625Q718.1292724609375 221.08740234375 718.1292724609375 267.2611083984375H883.043701171875Q883.043701171875 181.6959228515625 834.1524047851562 118.8262939453125Q785.2611083984375 55.9566650390625 696.60888671875 21.97833251953125Q607.9566650390625 -12 487.7825927734375 -12Z"/>
<path transform="translate(91.78 0) scale(0.096000 -0.096000)" d="M20.521484375 0 362.1300048828125 687.2174072265625H555.8707275390625L897.479248046875 0H709.17333984375L649.39111328125 123.868896484375H257.609619140625L198.0447998046875 0ZM320.8707275390625 257.304443359375H586.1300048828125L513.0870361328125 413.999267578125Q508.5218505859375 424.3470458984375 500.00018310546875 444.1077880859375Q491.478515625 463.8685302734375 482.73944091796875 485.17279052734375Q474.0003662109375 506.47705078125 466.9351806640625 523.0857543945312Q459.8699951171875 539.6944580078125 458.0003662109375 543.520751953125H450.2177734375Q441.8699951171875 524.1729736328125 431.13092041015625 499.0426025390625Q420.391845703125 473.9122314453125 410.5440673828125 450.564453125Q400.6962890625 427.2166748046875 393.9136962890625 413.2166748046875Z"/>
<path transform="translate(181.06 0) scale(0.096000 -0.096000)" d="M91.9996337890625 0V687.2174072265625H361.0455322265625L502.3922119140625 356.175537109375Q509.609619140625 339.0885009765625 520.3486938476562 310.805908203125Q531.0877685546875 282.5233154296875 542.500732421875 251.8929443359375Q553.9136962890625 221.2625732421875 562.82666015625 196.5670166015625H569.82666015625Q577.95703125 218.6973876953125 588.9786987304688 247.8277587890625Q600.0003662109375 276.9581298828125 611.2394409179688 305.84942626953125Q622.478515625 334.74072265625 630.478515625 354.6103515625L771.8251953125 687.2174072265625H1034.3492431640625V0H861.695556640625V393.9111328125Q861.695556640625 412.650390625 862.195556640625 435.6070556640625Q862.695556640625 458.563720703125 863.695556640625 480.91168212890625Q864.695556640625 503.2596435546875 865.4781494140625 519.5640869140625H857.4781494140625Q852.0433349609375 502.8248291015625 843.7172241210938 479.75946044921875Q835.39111328125 456.694091796875 827.0650024414062 433.84613037109375Q818.7388916015625 410.9981689453125 811.521484375 393.9111328125L641.6966552734375 0H478.2607421875L307.6533203125 393.9111328125Q298.218505859375 416.52001953125 289.28369140625 440.194091796875Q280.348876953125 463.8681640625 273.52276611328125 484.8900146484375Q266.6966552734375 505.911865234375 261.6966552734375 519.5640869140625H253.6966552734375Q254.6966552734375 506.6944580078125 255.1966552734375 485.672607421875Q255.6966552734375 464.6507568359375 256.1966552734375 440.9766845703125Q256.6966552734375 417.3026123046875 256.6966552734375 393.9111328125V0Z"/>
<path transform="translate(290.30 0) scale(0.096000 -0.096000)" d="M91.9996337890625 0V687.2174072265625H606.652587890625Q673.8699951171875 687.2174072265625 723.9135131835938 657.8912963867188Q773.95703125 628.565185546875 801.7831420898438 577.195556640625Q829.6092529296875 525.825927734375 829.6092529296875 458.7537064163773Q829.6092529296875 391.9996337890625 801.2831420898438 339.73870849609375Q772.95703125 287.477783203125 722.1309204101562 258.2603759765625Q671.3048095703125 229.04296875 603.522216796875 229.04296875H264.6533203125V0ZM264.6533203125 365.60888671875H555.6522216796875Q605.7244466145834 365.60888671875 632.6663004557292 389.93469739940065Q659.608154296875 414.26050808005135 659.608154296875 457.8142340673159Q659.608154296875 487.217041015625 647.5579153878348 507.8579480970228Q635.5076764787947 528.4988551784206 612.3842093331473 539.5751722181166Q589.2607421875 550.6514892578125 555.6522216796875 550.6514892578125H264.6533203125Z"/>
<path transform="translate(373.82 0) scale(0.096000 -0.096000)" d="M507.51134661651366 -12Q370.51233765635527 -12 270.4082074023964 29.82611083984375Q170.3040771484375 71.6522216796875 116.26055908203125 151.1522216796875Q62.217041015625 230.6522216796875 62.217041015625 343.52697095435684Q62.217041015625 457.3477783203125 116.26055908203125 536.565185546875Q170.3040771484375 615.7825927734375 270.4082074023964 657.5Q370.51233765635527 699.2174072265625 507.51134661651366 699.2174072265625Q646 699.2174072265625 745.7609252929688 657.5Q845.5218505859375 615.7825927734375 899.5653686523438 536.565185546875Q953.60888671875 457.3477783203125 953.60888671875 343.52697095435684Q953.60888671875 230.6522216796875 899.5653686523438 151.1522216796875Q845.5218505859375 71.6522216796875 745.7609252929688 29.82611083984375Q646 -12 507.51134661651366 -12ZM507.9129638671875 124.56591796875Q566.65185546875 124.56591796875 615.608154296875 138.23980712890625Q664.564453125 151.9136962890625 700.5642700195312 178.15277099609375Q736.5640869140625 204.391845703125 756.4335327148438 243.51851399739584Q776.302978515625 282.6451822916667 776.302978515625 333V356.2174072265625Q776.302978515625 406.36902858786385 756.4335327148438 445.09729505565065Q736.5640869140625 483.8255615234375 700.5642700195312 509.9559326171875Q664.564453125 536.0863037109375 615.608154296875 549.368896484375Q566.65185546875 562.6514892578125 507.9129638671875 562.6514892578125Q449.174072265625 562.6514892578125 400.2177734375 549.368896484375Q351.261474609375 536.0863037109375 315.26165771484375 509.9559326171875Q279.2618408203125 483.8255615234375 259.78369140625 445.09729505565065Q240.3055419921875 406.36902858786385 240.3055419921875 356.2174072265625V333Q240.3055419921875 282.6451822916667 259.78369140625 243.51851399739584Q279.2618408203125 204.391845703125 315.26165771484375 178.15277099609375Q351.261474609375 151.9136962890625 400.2177734375 138.23980712890625Q449.174072265625 124.56591796875 507.9129638671875 124.56591796875Z"/>
<path transform="translate(503.71 0) scale(0.096000 -0.096000)" d="M20.521484375 0 362.1300048828125 687.2174072265625H555.8707275390625L897.479248046875 0H709.17333984375L649.39111328125 123.868896484375H257.609619140625L198.0447998046875 0ZM320.8707275390625 257.304443359375H586.1300048828125L513.0870361328125 413.999267578125Q508.5218505859375 424.3470458984375 500.00018310546875 444.1077880859375Q491.478515625 463.8685302734375 482.73944091796875 485.17279052734375Q474.0003662109375 506.47705078125 466.9351806640625 523.0857543945312Q459.8699951171875 539.6944580078125 458.0003662109375 543.520751953125H450.2177734375Q441.8699951171875 524.1729736328125 431.13092041015625 499.0426025390625Q420.391845703125 473.9122314453125 410.5440673828125 450.564453125Q400.6962890625 427.2166748046875 393.9136962890625 413.2166748046875Z"/>
<path transform="translate(592.99 0) scale(0.096000 -0.096000)" d="M91.9996337890625 0V687.2174072265625H636.6962890625Q692.0545516752861 687.2174072265625 736.2450492751431 665.7174072265625Q780.435546875 644.2174072265625 805.9790649414062 606.2174072265625Q831.5225830078125 568.2174072265625 831.5225830078125 517.434814453125Q831.5225830078125 476.0433349609375 816.0877685546875 444.0433349609375Q800.6529541015625 412.0433349609375 774.5099001964891 391.195556640625Q748.3668462914156 370.3477783203125 715.9136962890625 359.7825927734375V355.7825927734375Q754.1532879264987 347.7825927734375 784.5770101741869 325.934814453125Q815.000732421875 304.0870361328125 832.435546875 269.47833251953125Q849.870361328125 234.86962890625 849.870361328125 187.695556640625Q849.870361328125 125.6522216796875 821.370361328125 83.86962890625Q792.870361328125 42.0870361328125 745.0442504882812 21.04351806640625Q697.2181396484375 0 638.000732421875 0ZM264.6533203125 134.1744384765625H592.217041015625Q627.5212272481715 134.1744384765625 650.151543799867 152.6418694109956Q672.7818603515625 171.10930034542872 672.7818603515625 210.04268425555267Q672.7818603515625 231.9566650390625 663.3389121109469 249.08600229116587Q653.8959638703312 266.21533954326924 634.9711872622183 275.62933725210337Q616.0464106541053 285.0433349609375 587.521484375 285.0433349609375H264.6533203125ZM264.6533203125 412.9566650390625H574.65185546875Q600.6896869498239 412.9566650390625 618.496698943662 422.0218505859375Q636.3037109375 431.0870361328125 645.7601928710938 447.29369116611167Q655.2166748046875 463.50034619941084 655.2166748046875 484Q655.2166748046875 518.521484375 634.0453886144301 536.7605590820312Q612.8741024241727 554.9996337890625 579.347412109375 554.9996337890625H264.6533203125Z"/>
<path transform="translate(680.83 0) scale(0.096000 -0.096000)" d="M91.9996337890625 0V687.2174072265625H795.6959228515625V550.6514892578125H264.8707275390625V416.2611083984375H734.174072265625V281.65185546875H264.8707275390625V136.56591796875H803.6959228515625V0Z"/>
<path transform="translate(765.02 0) scale(0.096000 -0.096000)" d="M91.9996337890625 0V687.2174072265625H647.3048095703125Q721.1744384765625 687.2174072265625 768.761474609375 657.1738891601562Q816.3485107421875 627.13037109375 840.000732421875 577.8694458007812Q863.6529541015625 528.6085205078125 863.6529541015625 469.39111328125Q863.6529541015625 406.65185546875 832.370361328125 353.15185546875Q801.0877685546875 299.65185546875 736.609619140625 269.217041015625L880.435546875 0H685.95556640625L564.738525390625 238.477783203125H264.6533203125V0ZM264.6533203125 374.2611083984375H595.521484375Q638.3907470703125 374.2611083984375 662.4776000976562 399.5870361328125Q686.564453125 424.9129638671875 686.564453125 465.3040771484375Q686.564453125 492.5648193359375 675.999267578125 511.7603759765625Q665.43408203125 530.9559326171875 645.0646362304688 540.8037109375Q624.6951904296875 550.6514892578125 595.521484375 550.6514892578125H264.6533203125Z"/>
<path transform="translate(854.98 0) scale(0.096000 -0.096000)" d="M327.521484375 0V541.260009765625H25.3477783203125V687.2174072265625H802.348876953125V541.260009765625H500.1751708984375V0Z"/>
<path transform="translate(935.62 0) scale(0.096000 -0.096000)" d="M507.51134661651366 -12Q370.51233765635527 -12 270.4082074023964 29.82611083984375Q170.3040771484375 71.6522216796875 116.26055908203125 151.1522216796875Q62.217041015625 230.6522216796875 62.217041015625 343.52697095435684Q62.217041015625 457.3477783203125 116.26055908203125 536.565185546875Q170.3040771484375 615.7825927734375 270.4082074023964 657.5Q370.51233765635527 699.2174072265625 507.51134661651366 699.2174072265625Q646 699.2174072265625 745.7609252929688 657.5Q845.5218505859375 615.7825927734375 899.5653686523438 536.565185546875Q953.60888671875 457.3477783203125 953.60888671875 343.52697095435684Q953.60888671875 230.6522216796875 899.5653686523438 151.1522216796875Q845.5218505859375 71.6522216796875 745.7609252929688 29.82611083984375Q646 -12 507.51134661651366 -12ZM507.9129638671875 124.56591796875Q566.65185546875 124.56591796875 615.608154296875 138.23980712890625Q664.564453125 151.9136962890625 700.5642700195312 178.15277099609375Q736.5640869140625 204.391845703125 756.4335327148438 243.51851399739584Q776.302978515625 282.6451822916667 776.302978515625 333V356.2174072265625Q776.302978515625 406.36902858786385 756.4335327148438 445.09729505565065Q736.5640869140625 483.8255615234375 700.5642700195312 509.9559326171875Q664.564453125 536.0863037109375 615.608154296875 549.368896484375Q566.65185546875 562.6514892578125 507.9129638671875 562.6514892578125Q449.174072265625 562.6514892578125 400.2177734375 549.368896484375Q351.261474609375 536.0863037109375 315.26165771484375 509.9559326171875Q279.2618408203125 483.8255615234375 259.78369140625 445.09729505565065Q240.3055419921875 406.36902858786385 240.3055419921875 356.2174072265625V333Q240.3055419921875 282.6451822916667 259.78369140625 243.51851399739584Q279.2618408203125 204.391845703125 315.26165771484375 178.15277099609375Q351.261474609375 151.9136962890625 400.2177734375 138.23980712890625Q449.174072265625 124.56591796875 507.9129638671875 124.56591796875Z"/></g>
</g>
</svg>
